<svg width="87" height="86" viewBox="0 0 87 86" fill="none" xmlns="http://www.w3.org/2000/svg">
<rect width="86.6825" height="86" rx="12" fill="#03836A"/>
<path d="M51.0241 66.8495L39.1333 70.0132C38.2861 70.2385 37.4074 69.7348 37.1803 68.8936C36.9534 68.0525 37.4608 67.1798 38.3078 66.9545L50.1986 63.7908C51.0458 63.5655 51.9245 64.0691 52.1516 64.9103C52.3787 65.7515 51.8711 66.6241 51.0241 66.8495V66.8495ZM45.5185 30.565C45.412 32.0043 44.5921 32.8156 43.3192 32.795C42.0517 32.7747 41.1294 31.9122 41.1598 30.5988C41.1893 29.3209 41.9962 28.4815 43.3689 28.4964C44.7407 28.511 45.4206 29.3159 45.5185 30.565ZM60.7627 25.7142C56.0324 17.9565 46.6634 14.1873 37.9594 16.7125C30.3421 18.9224 25.3756 23.9165 23.5697 31.5972C21.7822 39.1992 24.0071 45.7379 29.638 51.2138C30.9585 52.4981 32.1727 54.0537 32.9171 55.7137C33.6634 57.3776 33.9027 57.8979 35.7206 57.461C38.2453 56.8544 40.7362 56.1093 43.2605 55.5004C44.5545 55.1883 45.0462 54.4709 45.0376 53.1755C45.003 47.9476 45.0146 42.7193 45.0338 37.4912C45.038 36.3078 44.6634 35.3334 43.3811 35.3038C42.083 35.2739 41.6856 36.2157 41.6965 37.4222C41.7265 40.8117 41.7056 44.2015 41.7053 47.5911C41.7052 53.044 41.7053 53.044 36.3057 53.8274C34.2529 51.4919 32.3837 49.3924 30.5443 47.2673C23.9429 39.6402 25.1501 28.3653 33.3892 22.5257C39.3084 18.3302 45.6671 18.0968 52.0067 21.6392C57.8931 24.9285 61.0955 31.7053 60.2467 38.2609C59.6797 42.6402 57.5737 46.136 54.45 49.1411C52.5649 50.9547 50.847 52.9073 50.2287 55.5296C49.9394 56.7562 49.2468 57.3645 48.0502 57.6574C48.2738 57.451 35.1525 61.1017 35.1525 61.1017C34.3223 61.3225 33.8252 62.1776 34.0477 63.0017L34.0819 63.1292C34.3044 63.9533 35.1655 64.4471 35.9956 64.2263C35.9956 64.2263 51.0511 60.2091 51.2485 60.1536C52.6427 59.7714 53.4016 58.7858 53.4334 57.3791C53.4808 55.279 54.3998 53.6445 55.8952 52.2491C56.6958 51.502 57.4929 50.7483 58.2463 49.9552C64.4649 43.4061 65.4911 33.4692 60.7627 25.7141V25.7142Z" fill="#F8F8F8"/>
</svg>
