<svg width="87" height="86" viewBox="0 0 87 86" fill="none" xmlns="http://www.w3.org/2000/svg">
<rect width="86.6825" height="86" rx="12" fill="#0481C2"/>
<path d="M26.5 22.8333C24.465 22.8333 22.8333 24.465 22.8333 26.5V46.6667C22.8333 48.7017 24.465 50.3333 26.5 50.3333H46.6666C48.7016 50.3333 50.3333 48.7017 50.3333 46.6667V41.1667H46.6666V46.6667H26.5V26.5H46.6666V30.1667H50.3333V26.5C50.3333 24.465 48.7016 22.8333 46.6666 22.8333M37.5 33.8333C35.465 33.8333 33.8333 35.465 33.8333 37.5V43H37.5V37.5H57.6666V57.6667H37.5V54H33.8333V57.6667C33.8333 59.7017 35.465 61.3333 37.5 61.3333H57.6666C59.7016 61.3333 61.3333 59.7017 61.3333 57.6667V37.5C61.3333 35.465 59.7016 33.8333 57.6666 33.8333H37.5Z" fill="#F8F8F8"/>
</svg>
